# xmcd
#
# Track frame offsets:
#	150
#	19226
#	34092
#	56247
#	74631
#	91477
#	110085
#	135927
#	149272
#	164271
#	177652
#	192498
#	208539
#	224130
#	242635
#
# Disc length: 3444
#
# Revision: 2
# Processed by: cddbd v1.5.1PL0 Copyright (c) Steve Scherf et al.
# Submitted via: audiograbber 1.81.00
# Normalized: r1:DSETVAR1
#
DISCID=f00d720f
DTITLE=Various Artist - CDX 307 December 2002
DYEAR=2002
DGENRE=Country
TTITLE0=Wynn Varble - It's the holidays
TTITLE1=Ken Mellons - Mr DJ
TTITLE2=Steve Wariner - Snowfall on the sand
TTITLE3=Montgomery Gentry - Speed
TTITLE4=Alan JAckson - That'd be alright
TTITLE5=Jeff Bates - The love song
TTITLE6=Dixie Chircks - Travellin' soldier
TTITLE7=Shania Twain - Up
TTITLE8=Teresa - Brave new girls (Cady's song)
TTITLE9=King Country - 5 star dive bar
TTITLE10=Colte Bradley - Ain't it amazing
TTITLE11=Krystyn Smyth - Got alittle devil in me
TTITLE12=Jill King - One Mississippi
TTITLE13=The White Family - One nation under God
TTITLE14=Laura Dodd - Wow
EXTD=
EXTT0=
EXTT1=
EXTT2=
EXTT3=
EXTT4=
EXTT5=
EXTT6=
EXTT7=
EXTT8=
EXTT9=
EXTT10=
EXTT11=
EXTT12=
EXTT13=
EXTT14=
PLAYORDER=
